HIERARCHY
ROOT hip
{
	OFFSET 0.000000 0.000000 0.000000 
	CHANNELS 6 Xposition Yposition Zposition Xrotation Zrotation Yrotation
	JOINT abdomen
	{
		OFFSET 0.000000 3.402643 0.000000 
		CHANNELS 3 Xrotation Zrotation Yrotation
		JOINT chest
		{
			OFFSET 0.000000 8.438565 -0.680529 
			CHANNELS 3 Xrotation Zrotation Yrotation
			JOINT neck
			{
				OFFSET 0.000000 10.207942 -0.272212 
				CHANNELS 3 Xrotation Zrotation Yrotation
				JOINT head
				{
					OFFSET 0.000000 3.130431 0.000000 
					CHANNELS 3 Xrotation Zrotation Yrotation
					End Site
					{
						OFFSET 0.000000 3.130435 0.000000 
					}
				}
			}
			JOINT lCollar
			{
				OFFSET 3.470700 6.669187 -0.816635 
				CHANNELS 3 Yrotation Zrotation Xrotation
				JOINT lShldr
				{
					OFFSET 3.198488 0.000000 0.000000 
					CHANNELS 3 Zrotation Yrotation Xrotation
					JOINT lForeArm
					{
						OFFSET 10.139888 0.000000 0.000000 
						CHANNELS 3 Yrotation Zrotation Xrotation
						JOINT lHand
						{
							OFFSET 8.370511 0.000000 0.000000 
							CHANNELS 3 Zrotation Yrotation Xrotation
							End Site
							{
								OFFSET 4.083176 0.000000 0.000000 
							}
						}
					}
				}
			}
			JOINT rCollar
			{
				OFFSET -3.470700 6.669187 -0.816635 
				CHANNELS 3 Yrotation Zrotation Xrotation
				JOINT rShldr
				{
					OFFSET -3.198488 0.000000 0.000000 
					CHANNELS 3 Zrotation Yrotation Xrotation
					JOINT rForeArm
					{
						OFFSET -10.139888 0.000000 0.000000 
						CHANNELS 3 Yrotation Zrotation Xrotation
						JOINT rHand
						{
							OFFSET -8.370511 0.000000 0.000000 
							CHANNELS 3 Zrotation Yrotation Xrotation
							End Site
							{
								OFFSET -4.083176 0.000000 0.000000 
							}
						}
					}
				}
			}
		}
	}
	JOINT lThigh
	{
		OFFSET 5.308129 -1.633274 1.361059 
		CHANNELS 3 Xrotation Zrotation Yrotation
		JOINT lShin
		{
			OFFSET -2.041588 -20.007561 0.000000 
			CHANNELS 3 Xrotation Zrotation Yrotation
			JOINT lFoot
			{
				OFFSET 0.000000 -19.190928 -1.224953 
				CHANNELS 3 Xrotation Yrotation Zrotation
				End Site
				{
					OFFSET 0.000000 -2.449906 4.627600 
				}
			}
		}
	}
	JOINT rThigh
	{
		OFFSET -5.308129 -1.633274 1.361059 
		CHANNELS 3 Xrotation Zrotation Yrotation
		JOINT rShin
		{
			OFFSET 2.041588 -20.007561 0.000000 
			CHANNELS 3 Xrotation Zrotation Yrotation
			JOINT rFoot
			{
				OFFSET 0.000000 -19.190928 -1.224953 
				CHANNELS 3 Xrotation Yrotation Zrotation
				End Site
				{
					OFFSET 0.000000 -2.449906 4.627600 
				}
			}
		}
	}
}
MOTION
Frames: 11
Frame Time: 0.033333
-29.314774 42.931839 17.449654 0.059713 -3.281160 149.666000 -0.019530 -0.019644 -0.019419 4.023440 -0.010152 -0.010054 5.478620 -0.258659 -0.056668 16.797701 12.024700 -0.253120 4.279050 -1.616577 17.220778 -33.348202 28.020100 85.454803 -80.045601 4.083180 -25.201900 8.090150 4.702770 -15.048400 -23.650269 10.722469 16.805094 31.392900 -28.156401 88.320602 74.012299 -3.256920 -28.647900 24.595291 -4.340860 -15.097600 -2.579801 20.274521 19.968775 44.039371 -0.303898 25.060808 21.438755 1.234627 2.459850 -19.065882 -0.241993 -18.274157 35.010822 -0.254991 -6.175968 -15.450398 0.059767 3.049324 
-29.687622 43.997044 18.450472 2.481860 -4.366410 154.162003 -0.019530 -0.019644 -0.019419 4.013680 -0.005866 -0.146368 5.487530 -2.390430 -0.461928 16.925900 16.878000 -3.590000 2.470706 0.078052 18.502480 -34.835800 26.839100 86.618301 -80.708504 4.116860 -25.051901 8.090150 4.702770 -15.048400 -25.434284 8.196709 17.530563 32.748100 -29.080799 87.722298 75.499397 -3.327830 -29.294100 24.149630 -4.340860 -15.097600 -7.402222 16.509680 19.407991 52.641182 -0.020968 23.499355 19.821609 1.199224 2.952821 -17.082691 -0.906083 -15.769227 32.013577 0.052043 -13.383609 -11.198394 0.098059 2.315737 
-29.901289 45.032684 17.097023 4.380490 -5.637900 158.223999 -0.019530 -0.019644 -0.019419 4.013720 -0.014860 -0.370799 5.497190 -4.243660 -0.698527 18.358999 21.340099 -6.204690 2.441478 -0.439054 16.620358 -33.302898 27.197300 89.326401 -81.191002 4.150040 -25.598301 8.090150 4.702770 -15.048400 -26.904690 8.419283 15.918914 31.165701 -30.111300 88.525101 75.343399 -3.304800 -31.468000 23.644709 -4.340860 -15.097600 -6.669368 11.148786 22.607264 54.044838 0.184384 19.537489 17.316290 1.027089 2.905809 -12.946746 -2.977248 -16.380596 28.539070 0.232426 -17.050129 -8.185420 0.050336 2.234861 
-30.267962 45.954208 16.046997 3.863020 -7.214350 164.410004 -0.019530 -0.019644 -0.019419 4.003970 -0.007836 -0.438809 5.514450 -5.375920 -0.924417 17.592300 27.639900 -9.677370 1.552830 -0.634533 12.907933 -30.752501 26.603901 90.834000 -82.308403 4.223710 -26.352600 8.090150 4.702770 -15.048400 -28.569874 10.714302 12.576550 30.903900 -31.024000 88.509201 73.984802 -3.214700 -33.026299 23.079901 -4.340860 -15.097600 -8.003349 6.221460 23.548618 52.665634 0.339024 14.442228 14.293441 0.452963 -1.405740 -12.216520 -5.244009 -20.103867 27.173111 0.340121 -19.243282 -4.527120 0.017123 1.905269 
-31.273050 46.876610 16.032057 4.598610 -6.939920 170.037994 -0.019530 -0.019644 -0.019419 4.004010 -0.011746 -0.536388 5.500010 -5.098330 -0.744956 17.417900 33.002998 -12.823400 1.427066 2.430887 12.341444 -31.670700 24.975800 91.288902 -83.276100 4.285630 -26.481300 8.090150 4.702770 -15.048400 -29.147640 12.616918 12.480864 32.195801 -31.231300 88.320503 73.405502 -3.178650 -32.733898 22.454597 -4.340860 -15.097600 -7.269713 1.947283 23.745317 48.076012 0.409562 7.669503 11.459083 -0.039133 -8.290301 -12.839879 -7.507077 -23.276453 29.681677 0.349299 -20.307903 1.906891 -0.121042 1.606651 
-32.538879 47.497177 16.299421 -172.266006 -174.662994 -5.376020 -0.019530 -0.019644 -0.019419 4.013800 -0.024635 -0.614745 5.469590 -3.605110 -0.285571 18.556700 36.903900 -16.062901 1.665922 7.828762 14.567393 -35.070702 23.608299 92.453598 -82.918297 4.263150 -26.540701 8.090150 4.702770 -15.048400 -29.195992 13.459886 15.221626 33.832298 -30.918400 89.624603 73.770798 -3.219540 -31.161800 21.768139 -4.340860 -15.097600 -2.563263 -1.116735 24.849688 39.852646 0.371679 1.887126 11.738997 -0.402433 -14.013532 -13.112979 -10.044164 -25.576733 35.485245 0.213627 -19.747967 10.201025 -0.390159 0.223949 
-33.537231 47.317772 16.863472 -169.322998 -176.250000 0.347447 -0.019530 -0.019644 -0.019419 4.023470 -0.012122 -0.302494 5.471440 -1.314380 -0.030071 17.532000 41.336102 -21.494699 0.110374 13.281226 17.101984 -37.824501 22.868700 92.506798 -81.263397 4.164720 -26.976000 8.090150 4.702770 -15.048400 -30.005461 14.649463 17.946407 35.488098 -30.439400 90.976997 72.954300 -3.189430 -29.667801 21.019911 -4.340860 -15.097600 0.927560 -2.138278 26.587339 34.190544 0.154770 5.177294 12.926623 -0.531232 -14.328853 -14.569160 -12.906708 -28.569078 42.730621 0.008529 -18.656322 17.008865 -0.976857 -2.851155 
-34.381001 46.270775 17.676350 -167.725006 -177.130997 7.091570 -0.019530 -0.019644 -0.019419 4.023460 0.000406 0.253406 5.470290 0.996437 -0.017498 12.486100 45.910801 -29.383101 -2.269256 17.994600 18.561573 -39.904499 22.016600 92.525597 -76.458298 3.872960 -27.116699 8.090150 4.702770 -15.048400 -31.194916 16.217627 19.275124 36.836300 -30.259100 91.466003 68.527702 -2.936360 -29.553699 20.209286 -4.340860 -15.097600 1.822525 -2.317110 27.084681 33.653591 -0.078401 12.144948 8.288373 0.047096 -9.051851 -16.415579 -16.374672 -31.724768 47.581036 -0.070907 -19.888010 18.018597 -1.299007 -4.978595 
-34.956738 44.743412 18.262642 12.530800 -2.749650 -166.177002 -0.019530 -0.019644 -0.019419 4.013830 0.016829 0.663238 5.469350 2.588060 -0.036239 4.426890 49.882999 -38.673000 -3.814245 20.836634 18.065472 -40.930698 20.942301 93.788399 -66.525101 3.282220 -26.401899 8.090150 4.702770 -15.048400 -32.300987 17.938581 18.741232 37.279701 -29.899099 91.772202 60.310398 -2.483840 -29.145500 19.335665 -4.340860 -15.097600 1.912510 -2.648104 23.545107 35.452755 -0.089444 13.583224 -1.756222 0.242040 -5.219476 -16.991659 -19.477331 -33.789444 45.805256 0.059008 -22.250746 13.837285 -1.038362 -6.095960 
-35.346775 43.111359 18.694920 11.565700 -3.186280 -160.796997 -0.019530 -0.019644 -0.019419 4.013770 0.011746 0.536386 5.466590 2.213960 0.004496 -3.493520 53.500900 -46.133400 -3.262894 20.955263 15.757460 -40.954300 19.694599 95.796204 -52.046299 2.440120 -24.981199 8.090150 4.702770 -15.048400 -32.486454 19.439936 16.855585 36.579399 -27.745899 93.167000 47.918400 -1.841040 -28.188400 18.398371 -4.340860 -15.097600 1.318859 -3.864648 17.410803 37.657936 -0.004165 12.791236 -11.404359 0.175143 -4.363276 -17.050486 -21.206537 -31.437063 37.202393 0.368846 -24.305721 11.139794 -0.880900 -7.338240 
-35.738609 41.658939 18.997787 10.394700 -4.079880 -156.970993 -0.019530 -0.019644 -0.019419 4.023450 -0.000767 0.224133 5.470230 0.973978 0.017956 -8.807450 55.576599 -50.920502 -1.841903 19.307163 12.843535 -40.431599 17.941299 98.539101 -35.621399 1.611520 -23.580000 8.090150 4.702770 -15.048400 -32.242077 20.274824 14.368435 34.694199 -24.410801 95.497597 34.509800 -1.232450 -26.496799 17.396807 -4.340860 -15.097600 0.304800 -5.209871 14.656325 39.742062 0.072725 11.917291 -18.603287 -0.120829 -2.942948 -16.259296 -23.089418 -28.096725 26.245398 0.544631 -23.302410 12.931091 -1.165139 -8.815610 
